<svg version="1.2" xmlns="http://www.w3.org/2000/svg" viewBox="0 0 634 874" width="634" height="874"><style>.a{fill:#f2f2f2}.b{fill:#3f3d56}.c{opacity:.8;fill:none;stroke:#6c63ff;stroke-miterlimit:10;stroke-width:2}.d{fill:#8acdec}</style><path class="a" d="m1084 212.5c-133.6-185.9-415.7-261.3-693.1-180.1-146.7 42.9-288.1 128.9-358.2 295.5-125.3 297.6 137.8 392.7 309.8 423 83.1 14.7 161.5 39.3 233.1 72.8 128.7 60.3 356.7 113.7 528.6-137.4 124.6-182 68.7-350.1-20.2-473.8z"/><path class="b" d="m309.7 249.2q-0.1-1.1-0.3-2.2-0.2-1.1-0.5-2.2-0.3-1-0.6-2.1-0.4-1.1-0.8-2.1-0.1-0.4-0.3-0.7-0.2-0.4-0.4-0.7-0.3-0.3-0.6-0.6-0.3-0.2-0.7-0.4-0.2-0.1-0.5-0.1-0.2-0.1-0.5-0.1-0.2 0-0.5 0.1-0.2 0-0.5 0.1l-10 1.5q-0.4 0-0.7 0.1-0.3 0-0.6 0.2-0.3 0.1-0.5 0.2-0.3 0.2-0.5 0.4c-1.4 1.4-0.1 3.6-0.1 5.5-0.1 2.1-2 3.9-4 4.5q-0.8 0.1-1.6 0.2-0.8 0.1-1.6 0.1-0.8 0-1.6-0.1-0.8-0.1-1.6-0.3l-14.1-2.2q1.5-0.5 3-1.2 1.5-0.7 2.8-1.6 1.4-0.9 2.6-2 1.2-1.1 2.3-2.3c1.8-2.2 2.8-6.3 0.1-7.4q-0.3-0.1-0.6-0.1-0.3-0.1-0.6-0.1-0.3 0-0.6 0-0.3 0-0.6 0c-6.4 0.1-11.4-5.3-17.4-7.5-1.9-0.7-3.9-1-5.9-1.1-2.1 0-4.1 0.2-6 0.8-1.9 0.6-3.8 1.5-5.4 2.6-1.7 1.2-3.2 2.5-4.4 4.1l7.5 0.4q0.3 0 0.6 0 0.2 0.1 0.5 0.1 0.2 0.1 0.5 0.2 0.2 0.1 0.4 0.2c1.7 1.4-0.4 4-0.1 6.1 0.3 2.8 3.9 3.4 6.7 3.6 2.7 0.3 6.2 2.6 4.9 5-13.8 4.8-27.9-9.3-42.5-7.6-3.7 0.4-7.1 1.9-10.7 2.8-22 5.5-44.7-9.3-67.1-6.1q-1.9 0.3-3.7 0.7-1.9 0.4-3.7 0.9-1.8 0.5-3.6 1-1.9 0.6-3.6 1.2c-3.1 1-6.3 2.1-8.5 4.4-2.2 2.4-3.1 6.3-1 8.8q-2.1 0.1-4.3 0.1-2.2 0-4.3-0.2-2.2-0.2-4.3-0.6-2.2-0.4-4.3-1 1.2 0.7 2.1 1.6 0.9 0.9 1.6 2 0.6 1.1 1 2.4 0.3 1.2 0.3 2.5-3.4 0.6-6.7 1.4-3.4 0.7-6.7 1.7-3.2 1-6.5 2.3-3.2 1.2-6.3 2.6 0.6 1 1.2 1.9 0.7 0.9 1.3 1.8 0.7 1 1.4 1.8 0.8 0.9 1.5 1.7l-11.4 7.4c3.9 0.9 5.9 6.2 3.6 9.5 4-1.8 6.5-6.4 10.8-7.3 2.8-0.6 5.7 0.5 8.3 1.6 2.7 1.1 5.6 2.1 8.4 1.3 2.7-0.8 4.8-4.4 3-6.7q4.4-1.2 8.9-2.2 4.5-1 9.1-1.8 4.5-0.7 9.1-1.1 4.6-0.4 9.2-0.5 0.3-0.1 0.7-0.1 0.3 0.1 0.7 0.1 0.3 0.1 0.7 0.2 0.3 0.1 0.6 0.3c1.6 1.1 1.2 3.5 1.1 5.4-0.1 2 1.4 4.5 3.2 3.7-2.1 1.7-0.3 5.1 1.6 6.9 2 1.9 4.4 4.5 3.2 6.9-0.4 0.6-0.9 1.1-1.2 1.8-0.9 1.9 0.5 4.1 2.2 5.3 1.7 1.3 3.7 2.1 4.9 3.9 1.1 1.7 0.6 4.7-1.5 5l-5.9-7.5q-0.7 0.8-1.3 1.7-0.7 0.8-1.2 1.8-0.5 0.9-0.8 2-0.4 1-0.6 2c6.2 5.1 7.1 15.5 1.9 21.6-2.6 3.2-6.4 5.1-9.7 7.5-3.4 2.5-6.4 6-6.4 10.1 0 7.1-0.6 13.7 2.1 20.3q1.8 4.6 3.8 9.1 2 4.5 4.1 8.9 2.1 4.4 4.4 8.8 2.3 4.4 4.7 8.6c1.7 3 3.8 6.3 7.2 6.9q-6.4-15.8-11.6-32c2.3 0.1 4.8 0.2 6.2 2 1 1.6 0.8 3.6 1.2 5.4q0.1 0.7 0.3 1.3 0.2 0.7 0.5 1.3 0.3 0.6 0.6 1.2 0.3 0.6 0.7 1.2l20.5 36.6c1.7 3.1 3.7 6.3 6.9 7.5 2.1 0.8 4.5 0.7 6.4 1.8 1.5 0.9 2.6 2.5 4.1 3.3 4.3 2.4 10.3-2.2 14.4 0.7 1.1 0.8 1.9 2 2.9 3 3.8 3.2 9.9 1 14.2 3.5 2.8 1.5 4.2 4.6 5.7 7.4 3.7 7.1 9.7 14 17.7 14.6 2.5 0.2 5.1-0.3 7.5 0.2 2.4 0.6 4.9 2.7 4.5 5.2-0.7 4.3 1.4 8.9 0.8 13.2-1 7.7-12 11.1-13 18.9-0.2 1.7 0.2 3.5-0.2 5.1-0.5 2.1-2.1 3.7-2.6 5.8-1 3.8 1.7 7.6 4.7 10.2 3.1 2.6 6.7 4.8 8.3 8.4 1.8 3.9 0.9 8.3 1.5 12.5 1.2 9.1 9.1 15.8 17.2 20.2 2.4 1.3 5.1 2.6 6.7 4.9 2.1 3 1.8 7 2.5 10.5 1.7 8.8 9.1 16.1 9.3 25 0.2 6.4-3.3 12.1-5.4 18.1q-1.5 4.3-2.1 8.9-0.5 4.5 0 9 0.4 4.6 1.8 8.9 1.4 4.3 3.7 8.3c1.6 2.6 3.5 5.2 4.6 8 2 5.2 1.3 11.1 3.2 16.3 2.4 6.9 9.1 12.6 8.4 19.9 3.1 6.2 9.8 9.3 16.5 11.2l12.1 3.4c2.3 0.6 4.7 1.3 7 0.8 2.4-0.5 4.6-2.4 4.6-4.8-5.9-1.4-12.1-2.8-16.9-6.4-4.9-3.6-8.2-10-6.4-15.8 0.9-2.7 2.7-5.7 1-8-1-1.2-2.9-1.6-4-2.7-1.7-1.8-1.1-4.8 0.1-7 1.3-2.2 3.1-4.1 3.6-6.6q0.2-1 0.1-2.1-0.1-1-0.6-2-0.4-0.9-1.1-1.7-0.7-0.8-1.6-1.3 0.8-0.3 1.6-0.7 0.8-0.4 1.6-0.9 0.7-0.5 1.4-1.1 0.7-0.5 1.4-1.2c1.5-1.8 2.3-4.5 1-6.6 3.7 0.5 8 0.7 10.4-2.1 2-2.2 1.8-5.6 1.1-8.4-0.8-2.9-2.1-5.6-2.1-8.6q3.1 0.2 6.3 0.2 3.2 0 6.4-0.1 3.1-0.1 6.3-0.3 3.2-0.3 6.3-0.6-0.4-1.6-1.2-3-0.7-1.4-1.7-2.6-1-1.3-2.2-2.3-1.2-1-2.6-1.8c3.8-0.6 7.3-5.2 8.5-8.9 1.2-3.6 0.9-7.6 0.2-11.4q-0.1-0.4-0.2-0.8-0.1-0.4-0.1-0.7 0-0.4 0-0.8 0.1-0.4 0.1-0.7c0.5-1.4 1.8-2.2 3.1-3l18.9-10.8q0.4-0.2 0.8-0.5 0.4-0.2 0.8-0.5 0.4-0.3 0.7-0.6 0.4-0.3 0.7-0.7c2-2.3 1.7-5.8 0.7-8.7-1-2.9-2.7-5.6-3.1-8.6-1.1-9.1 8.6-15.6 11.9-24.1 1.2-3.4 1.5-7 1.8-10.6 0.2-3.8 0.2-8.3-2.7-10.8-2.8-2.3-7.3-1.8-10.2-4-2.7-2.1-3.7-6-6.6-7.6-2.7-1.5-6.1-0.6-9.1-1.3-5.3-1.2-8.6-7.3-14-7.8-3-0.4-6.5 1.1-9-0.6-2.1-1.6-2.2-4.7-2.7-7.4-0.3-2-1-4-2-5.9-0.9-1.8-2.2-3.5-3.6-5-1.5-1.5-3.2-2.7-5-3.7-1.9-1-3.9-1.6-5.9-2-3.2-0.5-6.6-0.3-9.2-2-2.7-1.8-4-5.1-6.1-7.5-3.4-3.9-8.8-5.2-13.8-6.4l-20.5-4.9c-3.7-0.8-8.4-1.3-10.3 1.9q-0.2 0.5-0.4 1-0.2 0.4-0.4 0.9-0.1 0.5-0.2 1-0.2 0.5-0.2 1-0.6 1.8-1.7 3.3-1 1.5-2.5 2.7-1.5 1.1-3.3 1.7-1.8 0.6-3.7 0.6-0.6-1-1.5-2-0.8-0.9-1.8-1.7-1-0.8-2.1-1.4-1.1-0.5-2.4-0.9c-2-0.6-4.3-0.6-6.2-1.5-1.1-0.5-2.1-1.2-2.9-2.1-0.8-1-1.3-2-1.7-3.2-0.4-1.1-0.5-2.3-0.4-3.5 0.2-1.2 0.5-2.4 1.1-3.4q0.9-1.6 1.2-3.4 0.4-1.8 0.1-3.6-0.2-1.7-1-3.4-0.9-1.6-2.2-2.8c-3.4-3.2-8.5-3.9-13.2-3.6-1.2-2.7 0.9-5.7 3.1-7.6 2.2-2 4.9-3.9 5.3-6.8 0.8-4.6-5-8-9.4-6.7-4.5 1.4-7.3 5.7-9.2 9.9-1 2.4-1.9 5-3.6 7-1.7 2.1-4.4 3.6-7 2.9-3.6-0.9-5-5.2-5.8-8.9-1.1-4.9-2.2-9.9-2-15 0.2-5 1.9-10.2 5.7-13.6 6-5.5 15.3-5 23.4-4.1-1.9-2.2-1.4-5.8 0.7-7.9q0.8-0.7 1.7-1.2 1-0.5 2.1-0.8 1-0.2 2.1-0.2 1.1 0 2.2 0.2 0.9 0.2 1.8 0.6 0.8 0.3 1.6 0.8 0.8 0.5 1.6 1.1 0.7 0.6 1.3 1.3c2.3 2.8 2.9 6.6 4.7 9.8 1.8 3.3 5.7 6 8.9 4.3 2.8-1.5 3.3-5.4 2.6-8.5-0.7-3-2.2-6-2-9.2 0.5-6 6.8-9.6 12.2-12.1 5.5-2.5 11.8-5.8 12.7-11.8q0-0.4 0.1-0.8 0-0.5 0.1-0.9 0.1-0.4 0.2-0.8 0.1-0.5 0.3-0.9 0.2-0.3 0.5-0.7 0.2-0.3 0.5-0.6 0.4-0.3 0.7-0.5 0.3-0.3 0.7-0.5c16.1-10.6 32.4-21.3 50.7-27.1 1-0.3 1.1 0 2.1-0.2 1.3-0.8 0.4-3-0.9-3.9-1.3-0.8-3-1.5-3.4-3.1-0.2-1.1 0.5-2.2 0.6-3.3 0.4-2.8-2.9-5.4-5.5-4.3-1.5-2 1.4-4.2 3.8-4.9q2.6-0.7 5.3-1.3 2.7-0.6 5.4-1 2.7-0.5 5.5-0.8 2.7-0.3 5.5-0.4 0.3-0.1 0.6-0.1 0.3 0 0.6 0.1 0.3 0 0.6 0.2 0.3 0.1 0.6 0.2c1.2 0.9 1.1 2.8 0.2 4-0.9 1.2-2.2 2-3.3 3q-0.9 0.9-1.5 2-0.6 1.1-0.9 2.3-0.4 1.2-0.3 2.4 0 1.3 0.4 2.4c3.8 2 7.9 4 12.2 3.3 4.2-0.7 8-5.4 6-9.2-1.9-3.6-7.4-4.4-8.4-8.3-1.1-4.5 5.3-8.5 3.9-13-0.7-1.9-2.6-3.1-4.1-4.5q-1.3-1.3-2.2-2.9-0.9-1.6-1.2-3.5-0.4-1.8-0.2-3.6 0.2-1.9 0.9-3.5-1.8 0.3-3.6 0.2-1.9-0.2-3.7-0.7-1.7-0.6-3.3-1.5-1.6-1-2.9-2.3c-3.2-3.2-5.8-8.4-10.4-8.2-4.2 0.1-7.9 5-11.8 3.5-1-0.4-2-1.1-2.9-0.7q-0.3 0.2-0.5 0.4-0.1 0.2-0.3 0.4-0.1 0.2-0.2 0.5-0.1 0.3-0.1 0.5c-1 4.8 0.7 10.3-1.9 14.4-2.8 4.5-9.4 5.1-12.9 9.2-1.8 2.2-2.6 5.2-4.3 7.5-1.7 2.3-5.3 3.8-7.4 1.8q0.8-1.6 1-3.3 0.2-1.7-0.2-3.4-0.4-1.7-1.3-3.2-0.9-1.5-2.3-2.6-0.7-0.4-1.4-0.9-0.8-0.4-1.6-0.8-0.7-0.3-1.5-0.7-0.8-0.3-1.6-0.6-0.9-0.3-1.8-0.8-0.9-0.4-1.8-0.9-0.8-0.5-1.6-1-0.9-0.5-1.7-1.1-0.4-0.2-0.7-0.5-0.4-0.3-0.7-0.6-0.3-0.4-0.6-0.8-0.3-0.4-0.5-0.8-0.2-0.5-0.2-1-0.1-0.6-0.1-1.1 0-0.6 0.1-1.1 0.2-0.5 0.4-1 0.8-2.3 2.1-4.2 1.4-2 3.2-3.5 1.8-1.5 4-2.5 2.2-1 4.5-1.3c2.8-0.4 6-0.3 7.8-2.4 1-1.1 1.5-2.7 2.9-3.2q0.3-0.1 0.6-0.1 0.4 0 0.7 0.1 0.3 0 0.7 0.1 0.3 0.1 0.6 0.2l10.2 3.6q0.5 0.2 0.9 0.4 0.5 0.1 0.9 0.2 0.5 0.1 1 0.1 0.4 0 0.9-0.1 0.5 0 0.9-0.2 0.4-0.3 0.7-0.6 0.3-0.4 0.4-0.8 0.2-0.5 0.1-1c-0.3-1.7-2.9-2.5-2.7-4.2q0.1-0.2 0.2-0.4 0-0.2 0.1-0.4 0.2-0.2 0.3-0.3 0.1-0.2 0.3-0.3 2.8-3 6.1-5.3 3.4-2.2 7.1-3.7 3.8-1.5 7.8-2.1 4-0.7 8-0.4c1.3 2.1-0.7 4.6-2.4 6.5-1.7 1.8-3.1 5-1 6.4q0.3 0.2 0.6 0.3 0.3 0.1 0.7 0.2 0.3 0.1 0.7 0.1 0.3 0 0.7 0 0.9 0.1 1.9 0.3 0.9 0.2 1.8 0.5 0.9 0.3 1.8 0.6 0.9 0.4 1.8 0.8 5.3 2.3 10.4 5.1c-0.3-2.3-0.6-4.6 0.2-6.7 0.9-2.1 3.3-3.8 5.4-3 2.1 0.8 3.1 3.5 5.3 3.8 2.9 0.3 4-4 2.8-6.6-1.2-2.7-3.6-4.9-3.8-7.8-0.1-2 0.6-4.4-1-5.6q-0.2-0.1-0.4-0.2-0.2-0.1-0.4-0.2-0.3-0.1-0.5-0.1-0.3-0.1-0.5-0.1l-39.1-7.2c-2.3-0.4-5.7-0.1-5.8 2.2 0 1.4 1.1 2.7 0.6 3.9-0.5 1.3-2.4 1.1-3.7 1.6-2 0.7-3.1 3.2-2.9 5.3q0.2 0.8 0.4 1.6 0.2 0.8 0.5 1.6 0.3 0.7 0.7 1.4 0.4 0.8 0.9 1.4c-2.6-1-6.4-1.2-9-2.3z"/><path class="b" d="m278.5 216q-1.8-0.6-3.7-0.6-2 0-3.9 0.5-1.8 0.6-3.4 1.7-1.6 1.1-2.9 2.6c-0.6 0.9-1.1 2-0.6 2.9 0.8 1.4 2.7 0.8 4.2 0.4q0.8-0.3 1.6-0.5 0.8-0.1 1.7-0.2 0.8 0 1.7 0.1 0.8 0.2 1.6 0.4c1.4 0.5 2.6 1.3 4 1.7q0.5 0.3 1 0.3 0.5 0.1 1.1 0 0.5-0.1 1-0.3 0.5-0.2 0.9-0.5c1-1 1-2.5 1-3.8q0.1-0.4 0-0.7 0-0.3-0.1-0.7-0.1-0.3-0.3-0.6-0.1-0.3-0.4-0.5-0.2-0.2-0.4-0.2-0.2-0.1-0.4-0.2-0.3-0.1-0.5-0.1-0.2-0.1-0.5-0.1-0.5-0.1-1-0.3-0.5-0.1-0.9-0.4-0.5-0.3-0.9-0.6-0.4-0.4-0.8-0.8"/><path class="b" d="m292.6 212.1q-0.8 0-1.6 0.3-0.7 0.4-1.2 1.1-0.5 0.7-0.5 1.5-0.1 0.9 0.2 1.7 0.7 0.1 1.3 0.2 0.7 0.1 1.3 0.2 0.7 0 1.3 0 0.7 0 1.3-0.1 0.7-0.1 1.3-0.4 0.6-0.3 1.1-0.7 0.4-0.5 0.8-1 0.3-0.6 0.5-1.2-0.8 0.1-1.6 0.1-0.7 0-1.5-0.2-0.8-0.1-1.5-0.4-0.7-0.3-1.4-0.7"/><path class="b" d="m339.9 205.6q-1.7 0.3-3.4 0.8-1.7 0.5-3.4 1-1.7 0.6-3.3 1.3-1.6 0.6-3.2 1.4 1.5 0.6 2.7 1.6 1.3 1 2.1 2.4 0.9 1.3 1.3 2.9 0.4 1.6 0.3 3.2-0.1 0.3-0.1 0.6 0 0.3 0 0.6 0 0.3 0 0.6 0.1 0.3 0.1 0.7c0.5 1.1 2 1.6 3.2 1.9q0.8 0.2 1.7 0.4 0.9 0.2 1.7 0.3 0.9 0.1 1.8 0.2 0.9 0 1.7 0 0.9-0.1 1.7-0.3 0.9-0.3 1.6-0.7 0.8-0.5 1.4-1.1 0.6-0.7 1.1-1.4 0.1-0.4 0.2-0.7 0.2-0.4 0.3-0.8 0.2-0.3 0.3-0.7 0.2-0.3 0.4-0.6c2.9-4.6 11.8 0.9 15-3.5 1.2-1.5 1.1-3.9 2.6-5.1q0.2-0.2 0.5-0.4 0.4-0.1 0.7-0.3 0.3-0.1 0.6-0.2 0.4-0.1 0.7-0.1 2.4-0.5 4.9-0.9 2.4-0.4 4.9-0.8 2.4-0.3 4.9-0.6 2.4-0.3 4.9-0.5c3.1-0.3 7.1-1.4 7.2-4.5q-4.4-0.8-8.8-1-4.5-0.1-8.9 0.5-4.4 0.6-8.6 1.9-4.3 1.3-8.3 3.3c-3.8 1.9-8.9 5.9-12.6 3.4-1.4-1-1.4-3.5-3.3-4.6-1.9-1.1-4.5-0.7-6.6-0.2z"/><path class="b" d="m378.2 212.7l5.5 1.1c-1-0.1-2 0.1-2.9 0.5-1 0.4-1.8 0.9-2.5 1.7-0.7 0.7-1.3 1.6-1.6 2.5-0.3 1-0.5 2-0.4 3 5.2 1.7 10.8 0 16.2 0.3 5.4 0.2 11.7 4.1 10.8 9.4-0.3 1.6-1.2 3.3-0.7 4.8 0.3 1.1 1.3 1.9 1.8 2.9 1.2 2.1 0.3 4.8-1.2 6.7-1.4 1.9-3.4 3.5-4.6 5.5-3.2 5.1-1.4 11.6 0.5 17.3q0.2 0.8 0.5 1.5 0.3 0.8 0.6 1.6 0.4 0.7 0.9 1.4 0.4 0.7 0.9 1.3c2.8 3 7.3 3.2 11.4 3.3 2.9 0 6.3-0.1 8.1-2.4 2.5-3 0.8-7.6 2.4-11.1 1.4-3.2 5.1-4.6 8.5-5.5 6.1-1.8 12.4-3.3 18.2-6 7.2-3.3 14-8.5 21.9-8.9 2.2-0.1 4.5 0.1 6.7-0.5 2.1-0.6 4.1-2.4 4-4.7-0.2-1.9-1.8-3.2-3-4.7-1.3-1.4-2.3-3.6-1.1-5.1l20.8-3.9c-1.5-4-2.6-9.3 0.8-11.9 1.2-1 2.8-1.4 3.9-2.5 1.7-1.9 0.8-5.3-1.2-6.9-2.1-1.7-4.8-2.1-7.4-2.3-9.2-0.8-18.3-0.3-27.5 0.2q-26.8 1.5-53.6 3c-3.5 0.2-7.7-0.1-11 1.1-2.8 1-4.8 2.9-8 3.6-5.9 1.3-12.3 0.4-17.7 3.7z"/><path class="b" d="m476.7 256.2q-0.2-0.1-0.4 0-0.2 0-0.4 0-0.2 0.1-0.4 0.1-0.2 0.1-0.4 0.2-0.1 0.2-0.2 0.3-0.1 0.2-0.2 0.3 0 0.2-0.1 0.3 0 0.2 0 0.4-0.1 0.7-0.1 1.5 0 0.8 0.1 1.5 0.2 0.8 0.5 1.5 0.3 0.7 0.7 1.3 0.4 0.6 1 1.1 0.6 0.5 1.2 0.9 0.7 0.3 1.5 0.4 0.7 0.2 1.5 0.1c2.5-0.3 4.3-2.4 6.6-3.4 3.5-1.6 18.4-4.1 8.1-9.7-3.6-1.9-5.9-0.2-8.7 1.1q-1.2 0.6-2.4 1-1.3 0.5-2.6 0.7-1.3 0.3-2.6 0.4-1.4 0.1-2.7 0z"/><path class="b" d="m567 209.6q-0.5 0.2-0.9 0.4-0.4 0.3-0.8 0.6-0.3 0.3-0.7 0.7-0.3 0.4-0.5 0.8-0.2 0.4-0.3 0.9 0 0.5 0.1 0.9 0.1 0.5 0.4 0.9 0.3 0.4 0.7 0.6 0.2 0.1 0.4 0.1 0.2 0.1 0.3 0.1 0.2 0 0.4 0 0.2 0 0.3 0l4.9 0.2c2.1 0 4.7 0.5 5.3 2.5 0.4 1.5-0.5 3.4 0.6 4.4q0.2 0.2 0.3 0.3 0.2 0.1 0.5 0.2 0.2 0.1 0.4 0.1 0.2 0.1 0.4 0.1 0.6 0.2 1.3 0.2 0.6 0.1 1.2 0.1 0.6 0.1 1.2 0 0.7 0 1.3-0.1c3.5-1 1.7-3.2 2.8-5.1 1.7-3 1.4-1.2 4.4-2.9 2.2-1.2 5.1-3.5 3.3-6.7-3.3-5.5-22.6-1.7-27.3 0.7z"/><path class="b" d="m663.5 206.8l-2.8 0.4c-6.4 0.8-12.9 1.7-19 3.6q1 0.4 2 0.7 1 0.4 2.1 0.6 1 0.3 2.1 0.5 1 0.1 2.1 0.3 0.6 0 1.2 0 0.5 0.1 1.1 0.2 0.6 0.1 1.2 0.2 0.6 0.1 1.2 0.2c2.7 0.8 5.4 2.9 8.1 1.9 1.6-0.7 2.1-2.4 3.5-3.3 0.9-0.6 4.4-1.6 4.8-2.3 3.2-5-5.1-3.3-7.6-3z"/><path class="b" d="m676 219.7q-1.4 0.8-2.8 1.7-1.4 0.9-2.7 1.8-1.3 1-2.6 2-1.2 1.1-2.4 2.2c-1.3 1.2-2.7 2.8-2.6 4.6 0.2 2.5 2.8 3.9 5 4.8l9.1 3.9c1.1-1.6 0.1-3.7-1-5.3-1.2-1.5-2.5-3.3-2-5.1 0.5-2.1 3.1-2.8 5.2-3.2 3.5-0.6 12.9-0.5 11.8-6.1-1.3-6.7-11.5-3.3-15-1.3z"/><path class="b" d="m674.2 594.8c-0.9 2.5-1 5.5 0.5 7.7 1.7 2.4 5 3.3 8 2.7q1-0.3 2.1-0.7 1-0.5 1.9-1.1 1-0.6 1.8-1.3 0.8-0.8 1.5-1.6 0.7-0.8 1.3-1.5 0.6-0.8 1.1-1.6 0.5-0.8 1-1.7 0.5-0.8 0.9-1.7 0.5-1.4 1-2.8 0.5-1.5 0.9-2.9 0.4-1.4 0.7-2.9 0.3-1.5 0.5-2.9l2.8-14.8c0.7-3.3 0.6-13.5-5.4-10.2-1.7 0.9-5.6 8-7.3 10.1-3.1 3.6-3.5 7.1-5.2 11.6-2.1 5.5-6.2 10.1-8.1 15.6z"/><path class="b" d="m995.3 670.6q-0.7-0.3-1.4-0.6-0.8-0.3-1.5-0.7-0.7-0.3-1.4-0.7-0.7-0.4-1.4-0.8-0.7 2-1.3 3.9-0.5 2-0.9 4-0.3 2-0.5 4-0.2 2.1-0.3 4.1l13.7-7.7c2-1.2 4.3-2.8 4.3-5.1q0-0.2-0.1-0.5 0-0.2-0.1-0.4-0.1-0.2-0.2-0.3-0.2-0.2-0.4-0.3-0.1 0-0.2-0.1-0.1 0-0.2 0-0.2 0-0.3 0-0.1 0-0.2 0c-2 0.2-3.9 1.1-5.8 1.8-1.9 0.7-4.1 1.1-5.9 0.1"/><path class="b" d="m1067.2 675.2q-0.6 0.1-1.1 0.3-0.6 0.2-1.1 0.4-0.6 0.2-1.1 0.4-0.6 0.2-1.1 0.4c-3.1 1.6-5.2 4.6-8.1 6.7-2.6 2-5.9 3.1-9.1 4.2-0.9 0.8-0.5 2.5 0.5 3.2q0.5 0.3 0.9 0.4 0.4 0.2 0.9 0.3 0.4 0.1 0.9 0.1 0.5 0.1 0.9 0c3.3 0.1 6.8 0.1 9.7-1.5q0.6-0.4 1.2-0.8 0.6-0.4 1.2-0.9 0.6-0.4 1.1-0.9 0.5-0.5 1.1-1c3.4-2.8 7.4-4.7 11.4-6.5q0.6-0.2 1.1-0.4 0.5-0.3 1-0.6 0.5-0.3 1-0.6 0.5-0.4 0.9-0.8c2.6-2.4 2.7-6.3-0.9-7.1-2.9-0.7-8.5 3.8-11.3 4.7z"/><path class="b" d="m1098.9 654.4q0.1-1.3 0-2.5-0.2-1.3-0.7-2.5-0.4-1.2-1.1-2.3-0.7-1.1-1.7-2c0 3.5-0.1 7.1-2 9.9-1.4 2.1-3.6 3.4-5.1 5.3-1.5 2-2.1 5-0.4 6.7q0.4 0.3 0.9 0.6 0.5 0.2 1 0.4 0.5 0.2 1 0.3 0.5 0 1 0.1c3.6 0.4 7.6 0.6 10.1-1.9 1.3-1.4 2-3.5 3.6-4.5q0.3-0.1 0.5-0.2 0.2-0.1 0.4-0.3 0.2-0.1 0.4-0.3 0.2-0.2 0.3-0.3c0.7-1.1-0.4-2.5-1.6-2.9-1.2-0.4-2.5-0.2-3.7-0.6-1.3-0.4-2.4-1.7-1.8-2.8"/><path class="b" d="m1042.5 528.8q-0.7 0.1-1.4 0.2-0.7 0.1-1.4 0.2-0.7 0-1.4 0-0.7 0-1.4-0.1c-3.2-0.6-5.6-2.9-8.1-4.9q-2.3-1.7-4.7-3-2.5-1.3-5.2-2.3-2.6-0.9-5.4-1.4-2.8-0.5-5.6-0.6c-6.8-0.1-13.8 1.8-20.5 0.5 0.4 2.4 2.5 4.3 4.8 5.4 2.2 1 4.7 1.6 6.9 2.7q1.4 0.6 2.6 1.5 1.2 0.8 2.2 1.9 1 1.1 1.9 2.3 0.8 1.3 1.4 2.6c0.7 1.7 1.1 3.6 2.2 5 2.3 3 6.5 3.7 10.3 3.5 4.9-0.4 10-1.8 14.5 0.1 3.5 1.3 6 4.4 8.9 6.8 2.9 2.3 7 4.1 10.3 2.4-1.7-0.6-3.3-1.4-4.8-2.5-1.5-1-2.7-2.3-3.8-3.8-1-1.5-1.9-3.1-2.4-4.8-0.6-1.7-0.8-3.5-0.8-5.4 3.3 0.3 12.7 0.2 12.2-5.3-0.4-4.7-8.5-1.5-11.3-1z"/><path class="b" d="m999.7 567.1c0.6-3.2 3.8-6 2.8-9.1-0.7-2.1-3.2-3.2-5.4-3.2-2.2-0.1-4.4 0.6-6.7 0.6q-0.5 0-1.1 0-0.5 0-1.1 0-0.5 0-1.1 0-0.5 0.1-1.1 0.1c-4.4 0.7-7.1 5.4-11.3 7-2.6 1-5.4 0.9-8.1 1.6-6 1.5-9.8 7.2-14 11.8q-2.5 2.7-5.4 5.1-2.9 2.3-6.2 4.2-3.2 1.9-6.7 3.3-3.4 1.3-7.1 2.2c-3.4 0.8-7.1 1.3-9.8 3.5-3.6 2.9-4.5 8-5.3 12.6q-0.8 4.7-1.8 9.4-1.1 4.7-2.3 9.3-1.3 4.7-2.8 9.2-1.5 4.6-3.2 9.1l14.3 1.8c2.7 0.4 5.5 0.7 8.2-0.1q0.7-0.3 1.4-0.6 0.7-0.3 1.3-0.6 0.7-0.4 1.3-0.8 0.7-0.4 1.3-0.8 2.4-1.5 4.9-2.7 2.5-1.2 5.2-2.2 2.6-0.9 5.3-1.6 2.7-0.7 5.5-1.1c3.7-0.5 7.6-0.6 11.2 0.8 3.5 1.4 6.5 4.5 6.8 8.3q1.1-0.3 2.3-0.4 1.2 0 2.3 0.3 1.2 0.2 2.2 0.8 1.1 0.6 1.9 1.4 0.9 0.9 1.5 1.9 0.7 0.9 1.3 2 0.5 1.1 0.9 2.2 0.3 1.1 0.5 2.3c0.4 1.9 0.8 4.3 2.6 5.1 1.4 0.7 3.1 0 4.8-0.2 5.4-0.4 10 6 15.4 4.9 5.8-1.2 7.2-9.9 12.8-11.6 3.3-1 7.8 0.2 9.4-2.8 1.3-2.7-1.4-5.7-1.1-8.7 0.3-3.7 4.7-5.2 8-6.8 11.5-5.4 16.9-20.8 11.4-32.2-3.3-6.8-9.8-12.1-11-19.5-0.9-5.7 1.3-12.4-2.3-16.9-1.9-2.3-5-3.5-6.1-6.2-0.7-1.8-0.4-3.7-0.8-5.5-0.4-1.8-2-3.7-3.8-3.3-5.2 1.4-6.8 17.5-9.6 21.4-4.2 5.9-12.9 2-11.6-5.3z"/><path class="b" d="m903.6 534.8c-1.8-0.5-3.7-1-5.4-0.2-1.7 0.7-2.7 3.2-1.3 4.4 10.7-0.4 21.4-0.8 32 0.6 12.2 1.7 24.3 5.8 36.6 4.6q-2.7-0.8-5.3-1.5-2.6-0.6-5.3-1.3-2.7-0.6-5.4-1.1-2.7-0.6-5.4-1l-12-2.3q-1.2-0.3-2.4-0.5-1.2-0.2-2.4-0.4-1.2-0.2-2.5-0.3-1.2-0.2-2.4-0.3c-6.9-0.6-12 1.2-18.8-0.7z"/><path class="b" d="m914.3 497.6c-0.9-0.1-2-0.1-2.4 0.6-0.5 0.8 0 1.7-0.2 2.5-0.3 1.2-1.8 1.4-2.9 1.3-1.2-0.2-2.4-0.5-3.4 0q-0.4 0.3-0.7 0.7-0.3 0.3-0.5 0.8-0.1 0.4-0.1 0.9 0 0.5 0.1 0.9 0.2 0.5 0.4 0.9 0.2 0.4 0.4 0.8 0.3 0.4 0.6 0.8 0.3 0.3 0.6 0.7 0.6 0.7 1.2 1.4 0.6 0.6 1.2 1.3 0.7 0.6 1.3 1.2 0.7 0.6 1.4 1.2c3.7 2.7 8.7 4 11 8q0.1 0.3 0.3 0.5 0.1 0.3 0.3 0.5 0.2 0.3 0.4 0.5 0.2 0.2 0.5 0.4c1.1 0.7 2.5 0.2 3.7-0.3l4.2-2q0.3-0.1 0.6-0.2 0.2-0.1 0.5-0.3 0.2-0.2 0.4-0.4 0.3-0.2 0.5-0.4c0.9-1.3 0.3-3.1-0.5-4.5-0.8-1.4-1.8-2.9-1.6-4.5 0.3-2.9 4-3.9 5.5-6.4 1.5-2.5 0.5-5.6 0.7-8.5 0.2-3.4 2.3-7.8-1.1-10.4-2.9-2.1-5.7-0.1-7.8 2.2-4.4 5.1-6.5 10.5-14.6 9.8z"/><path class="b" d="m939.8 447c1.4 2.7 4.4 4.4 5.9 7 1.7 2.9 1.5 6.7 3.4 9.5 1.9 2.9 5.7 4.4 6.7 7.7 1.2 3.5-1.5 7.9 0.6 11q0.6 0.8 1.5 1.2 0.8 0.5 1.8 0.6 1 0.1 1.9-0.2 0.9-0.3 1.6-1 0.7-0.7 1-1.6 0.4-0.9 0.3-1.9 0-1-0.4-1.9-0.4-0.9-1.1-1.5c-1.2-1.2-3-1.7-4-3q-0.2-0.3-0.4-0.6-0.2-0.3-0.3-0.6-0.1-0.3-0.2-0.6-0.1-0.4-0.2-0.7-0.2-1-0.3-2-0.1-1 0-2 0-1 0.2-2 0.1-1 0.4-2 0.1-0.3 0.2-0.5 0-0.3 0.1-0.5 0-0.3 0-0.6 0-0.2-0.1-0.5c-0.5-1.3-2.3-1.4-3.6-2.1-2.9-1.4-2.8-5.5-2.3-8.7-0.3 2.1-7.9-1.5-8.7-2.7-1.6-2.4-0.7-7-1.1-9.7-3.4 1.7-4.7 6.5-2.9 9.9z"/><path class="b" d="m863.3 489.2c-1.4-1.6-3.5-3.2-5.4-2.3-1.4 0.7-1.8 2.7-1.2 4.2q0.2 0.5 0.6 1.1 0.3 0.5 0.7 0.9 0.4 0.5 0.8 0.9 0.4 0.4 0.9 0.7c3.9 3.3 8.2 6.2 11.6 9.9 6.1 6.7 9.3 15.8 16 22q0.5 0.5 1 1 0.6 0.4 1.3 0.8 0.6 0.3 1.3 0.6 0.7 0.2 1.4 0.3c1.9 0.2 4.1-1 4.3-3 0.2-1.6-0.9-3-2-4.2-2.6-2.8-5.4-5.4-7.8-8.3q-0.4-0.4-0.8-0.9-0.3-0.5-0.6-1-0.2-0.5-0.4-1.1-0.2-0.6-0.2-1.2c0-1.6 1.4-3.2 2.9-2.8-1.8-0.5-3.2-3.6-5.9-4.2-2.3-0.5-2.9 0.9-5.6-0.2-5.2-2.2-9.2-9.2-12.9-13.2z"/><path class="b" d="m985.1 336.5q-0.6-0.2-1.1-0.3-0.6-0.2-1.1-0.4-0.6-0.2-1.1-0.4-0.6-0.2-1.1-0.4c-3.9-1.2-8.9 1.6-8.4 5.6 0.3 2.7 2.8 4.4 4.1 6.7 2 3.4 1.5 7.8 0.4 11.6q0 0.4-0.2 0.8-0.1 0.5-0.3 0.9-0.2 0.4-0.4 0.8-0.2 0.4-0.5 0.7-0.4 0.4-0.8 0.8-0.4 0.3-0.8 0.7-0.4 0.3-0.9 0.5-0.5 0.3-1 0.5-1.9 1.1-3.7 2.4-1.9 1.3-3.6 2.7-1.7 1.4-3.2 3-1.6 1.6-2.9 3.4-0.2 0.2-0.3 0.3-0.1 0.2-0.3 0.4-0.1 0.2-0.1 0.4-0.1 0.2-0.2 0.4c-0.1 1.4 1.2 2.3 2 3.5 1.7 2.5 0.4 5.8 0.6 8.8q0 0.3 0.1 0.7 0 0.3 0.2 0.6 0.1 0.3 0.3 0.5 0.2 0.2 0.5 0.4c1 0.5 2.2-0.3 2.8-1.3 1.8-3.4 0.4-8.7 3.9-10.3 0.6-0.3 1.4-0.5 1.8-1 0.7-1 0.1-2.3 0.4-3.4 0.5-1.6 2.8-1.7 4.5-1.6q1.1 0 2.2 0 1.1-0.1 2.2-0.2 1.1-0.2 2.2-0.4 1.1-0.3 2.1-0.6 0.4-0.1 0.8-0.2 0.4-0.2 0.8-0.4 0.4-0.2 0.7-0.5 0.3-0.3 0.6-0.6c1-1.2 0.9-3.1 0.7-4.7q-0.3-3.1-1-6.1-0.7-3-1.7-5.9-0.9-2.9-2.1-5.8-1.3-2.8-2.8-5.5c3.1 0.4 6.4 0.8 9-0.8 1.4-0.9 3.2-3.6 2.5-5.4-1.2-2.8-3.3-0.4-5.8-0.9z"/><path class="b" d="m596.2 381.4c0.4 2 0.7 4 0.1 5.9-0.6 1.9-2.6 3.4-4.5 2.9-1.5-0.5-2.4-2-3.4-3.1-5.8-6.3-18.9-2.6-22.5-10.4-1.5-3.2-0.5-7-1.5-10.3q-0.4-1.4-1.4-2.7-0.9-1.2-2.1-2-1.3-0.9-2.8-1.3-1.4-0.4-3-0.3-0.7 0.1-1.3 0.3-0.7 0.1-1.4 0.3-0.7 0.2-1.3 0.5-0.7 0.2-1.3 0.5-4.3 1.7-8.6 3.1-4.4 1.4-8.8 2.5-4.4 1.1-8.9 1.9-4.6 0.9-9.1 1.3-0.9 0.1-1.7 0.2-0.9 0.1-1.7 0.3-0.9 0.1-1.7 0.3-0.9 0.2-1.7 0.5c-5 1.8-8.4 6.4-10.8 11.1-2.5 4.8-4.2 9.9-7.5 14.1-3.4 4.4-8.2 7.4-12.7 10.8q-0.6 0.4-1.2 0.9-0.6 0.5-1.1 1-0.5 0.6-1 1.2-0.5 0.6-0.8 1.3c-1 2-1 4.3-0.9 6.5l0.9 26.8c0.1 3.5 0.3 7.1 1.8 10.1 2 3.9 5.8 6.4 8.4 9.8q1 1.3 1.8 2.8 0.8 1.5 1.3 3 0.5 1.6 0.7 3.2 0.2 1.6 0.2 3.3c-0.1 1.8-0.2 3.9 1.2 5q0.3 0.2 0.6 0.3 0.3 0.2 0.7 0.3 0.4 0.1 0.7 0.2 0.4 0 0.8 0l36.3 3c6.4 0.5 13.5 1.3 17.6 6.2 2 2.3 3.6 5.6 6.6 5.9 1.3 0.1 2.5-0.5 3.8-0.6 3.3-0.2 6.2 2.3 8 5q1 1.5 1.7 3.2 0.8 1.7 1.2 3.5 0.5 1.8 0.6 3.7 0.2 1.8 0 3.7c-0.3 3.1-1.3 6.1-1.5 9.2-0.8 11.9 9.3 22.2 9.5 34.1 0.1 7-3.2 13.5-6.4 19.7 5.2 7.9 0.9 18.5 3 27.7 2 8.8 9.3 15.7 11.1 24.5 0.8 4 0.9 9 4.4 11.1q0.6 0.3 1.2 0.5 0.7 0.2 1.3 0.3 0.6 0.1 1.3 0.2 0.6 0 1.3 0 3.9 0 7.8-0.4 3.8-0.4 7.7-1.3 3.8-0.8 7.4-2.1 3.7-1.4 7.2-3.1c4.4-2.2 9-5.4 9.8-10.3 0.6-3.9-1.4-8.3 0.6-11.7 2.4-4 8.5-3.7 12-6.8 5.7-5 1.2-14.5 3.5-21.7 2.1-6.5 9.2-10 12.8-15.8q0.5-0.9 0.9-1.9 0.5-1 0.8-2 0.4-1 0.7-2 0.3-1 0.5-2.1 0.6-2.5 1.1-5 0.5-2.6 0.9-5.1 0.3-2.6 0.6-5.2 0.3-2.5 0.4-5.1 0-1.6 0.1-3.1 0.1-1.6 0.2-3.2 0.1-1.5 0.3-3.1 0.1-1.6 0.3-3.1c3.8-23.7 27.2-39.5 34.8-62.2 0.7-2.2 1.1-5.1-0.9-6.3q-0.4-0.2-0.8-0.3-0.5-0.1-1-0.2-0.4 0-0.9 0-0.5 0-0.9 0.1l-16.8 2.1c-2.1 0.3-4.3 0.5-6.2-0.3-1.9-0.9-3.2-3.3-2.2-5.1 2.8-5.2-3-11.7-5.6-17q-2.7-5.3-5.5-10.5-2.9-5.2-6-10.2-3.1-5.1-6.5-10-3.3-4.9-6.9-9.6-0.3-0.3-0.4-0.5-0.2-0.3-0.4-0.6-0.1-0.3-0.2-0.6-0.1-0.4-0.1-0.7l4.7 0.2c-1.6-5.8-4.2-12.1-9.8-14.2-3.2-1.2-6.6-0.8-10-0.6-9.6 0.5-20-0.9-29.5-2.4z"/><path class="b" d="m625.7 251.7c2.5 2.7 5.3 5.6 9 6 6.4 0.8 11.1-5.8 14-11.6q0.1 1.1 0.6 2.1 0.5 1 1.3 1.7 0.8 0.8 1.9 1.1 1 0.4 2.1 0.4 0.6-0.1 1.2-0.3 0.6-0.2 1.1-0.4 0.6-0.2 1.1-0.5 0.6-0.3 1.1-0.6 4.7-2.6 9.8-4.6 5-2 10.3-3.3 5.3-1.4 10.6-2.1 5.4-0.7 10.9-0.7-0.1-0.9 0.1-1.7 0.2-0.8 0.6-1.5 0.5-0.6 1.2-1.1 0.7-0.5 1.5-0.7c2.9-0.6 5.6 2 7 4.7 1.5 2.6 2.3 5.7 4.6 7.7 2.3 2 6.7 1.9 7.6-1 0.8-2.8-2.1-5.1-4.5-6.8-2.3-1.6-4.9-4.6-3.3-7 12.3-2.7 24.6-5.4 37-6q0.8 0.1 1.6 0 0.8 0 1.6-0.2 0.8-0.1 1.6-0.3 0.7-0.2 1.5-0.5c1.9-1 3.4-3.1 2.9-5.1q-2.1 0.4-4.2 0.3-2.1-0.1-4-0.9-2-0.7-3.7-2-1.6-1.3-2.8-3c17.3-1.4 35.8-2.6 51.1 5.5 1.9 4-7.5 7.3-5 10.8 0.8 1.2 2.4 1.3 3.8 1.3 10.7 0.2 21.4 0.4 32-1.2 3.8-0.6 7.7-1.4 11.6-0.9 6.4 0.8 12 5.1 18.3 6.5 2.6 0.6 5.5 0.6 7.7-0.9 2.1-1.5 3.1-5 1.3-6.9 6-5.9 15.9-4.4 23.8-1.6 7.9 2.8 15.3 7.3 23.7 7.9 6 0.5 12-1.1 17.9-0.1 3.8 0.6 7.2 2.3 10.9 3.3 6.8 1.9 14.1 1.5 21.2 1.6q6.8 0.1 13.6 0.8 6.8 0.7 13.5 2.1 6.6 1.3 13.2 3.2 6.5 2 12.8 4.5 0.9 0.2 1.6 0.6 0.8 0.4 1.6 0.8 0.7 0.4 1.4 1 0.7 0.5 1.3 1.1c1.6 1.6 2.4 4.3 1.4 6.3l-17.5-2.5c1.6 3.2 5.9 3.8 9.3 4.9 3.5 1.1 7.1 4.9 5 7.9-3.7-1.2-7.1 2.5-9 6-1.9 3.4-4.2 7.6-8.2 7.8-3.5 0.2-7.7-2.8-10-0.2q1.2 1.5 2.3 3.1 1.1 1.6 2.1 3.2 1 1.6 1.9 3.3 0.9 1.6 1.8 3.4c2.2 4.7 3.8 10.6 0.8 14.9q-0.2 0.3-0.4 0.5-0.2 0.3-0.5 0.5-0.3 0.2-0.6 0.3-0.3 0.2-0.6 0.3c-2.5 0.6-4.1-2.4-5.9-4.3-2.3-2.3-5.7-3-8.7-4.1-3.1-1.1-6.3-3.2-6.6-6.5-0.1-2 1-3.9 1.7-5.7q0.5-1.2 0.9-2.4 0.3-1.3 0.6-2.5 0.2-1.3 0.2-2.5 0.1-1.3 0-2.6c-0.1-2.7-0.9-5.6-2.9-7.5-1.9-1.9-5.3-2.5-7.4-0.7-1 0.8-1.8 2.1-3.1 2.1-2.2 0.1-4-3.8-5.8-2.5q0.1 0.6 0.1 1.1 0 0.5-0.2 1.1-0.1 0.5-0.3 1-0.2 0.5-0.4 1c-5.5 4.7-13.8 2.7-20.8 4.3q-1.2 0.4-2.4 0.8-1.3 0.5-2.4 1-1.2 0.5-2.4 1.1-1.1 0.6-2.2 1.3-0.4 0.1-0.8 0.4-0.4 0.2-0.8 0.5-0.3 0.3-0.6 0.6-0.3 0.4-0.5 0.7c-0.9 1.7 0.1 3.9 1.6 5q0.6 0.4 1.2 0.7 0.7 0.3 1.4 0.5 0.6 0.3 1.3 0.4 0.7 0.2 1.5 0.3c8.5 1.6 17.1 4.1 23.8 9.5 6.8 5.5 11.2 14.6 9.1 23l-16.8-16.1q0.9 10.1 1 20.3 0.1 0.5 0.1 1 0 0.5-0.1 1-0.1 0.5-0.2 1-0.1 0.4-0.3 0.9c-1.2 2.6-4.4 3.5-7.3 4.1q-1.2 0.2-2.2 0.9-1 0.7-1.6 1.8-0.6 1-0.8 2.3-0.1 1.2 0.2 2.3c1 3.3 3.6 5.9 5.9 8.5 2.3 2.5 4.6 5.4 4.9 8.9 0.3 3.4-2.3 7.3-5.8 7-2.6-0.2-4.5-2.5-5.6-4.9-1.1-2.3-1.8-5-3.5-7-5-6-16.4-3.4-20.9-9.9q-0.9 1-1.5 2.1-0.5 1.2-0.8 2.5-0.3 1.3-0.3 2.6 0.1 1.3 0.5 2.5c2.1-1.3 5-0.1 6.6 1.8 1.5 2 2.3 4.4 3.5 6.6 1.7 2.9 4.4 5.5 4.6 8.8q0 0.5 0 0.9 0 0.5 0 1 0 0.5 0 0.9 0 0.5 0.1 1c0.4 2 2.1 3.5 3.3 5.2 2.8 3.9 2.6 9.3 0.8 13.8-1.7 4.5-4.9 8.2-8.1 11.8-5.6 6.4-11.2 12.7-17.8 17.9-1.8 1.5-3.8 3-5 5.1-1.2 2.1-1.2 5 0.6 6.6-1.3 0.1-3.6 0.7-4.9 0.8q-0.2-1.9-0.3-3.9-0.1-1.9-0.1-3.8-0.1-2 0-3.9 0-2 0.1-3.9c-5.1-2.4-10.5 4.1-9.9 9.7 0.7 5.5 4.7 10 7.6 14.8 2.1 3.6 3.7 7.7 3 11.7-0.7 4.1-4.4 7.8-8.5 7.5-6.5-0.6-9.2-10-15.6-11q-0.2-0.1-0.5-0.1-0.2 0-0.4 0-0.2 0-0.4 0.1-0.2 0.1-0.4 0.1c-1 0.6-1.1 1.9-1.2 2.9-0.3 5.4-0.5 11 1.6 15.9 3.1 7.2 10.9 13.3 9.3 20.9-8.9-4.1-13.6-14.1-15.7-23.7-2.1-9.6-2.4-19.7-6.2-28.8-2.9 3.7-8.9 0.6-11.5-3.2-2.5-3.7-4-7.9-6.4-11.6-2.4-3.7-6.1-7-10.5-7.2-4.7-0.2-8.7 2.9-12.2 5.9-2.9 2.5-5.9 5.1-7.6 8.5-2.4 4.9-1.8 10.8-1.9 16.3-0.1 6-1.4 12.3-5.5 16.7-4.1 4.4-11.6 5.9-16.1 2-2.4-2.1-3.5-5.2-4.5-8.1q-1.8-5.4-3.5-10.8-1.7-5.4-3.2-10.8-1.6-5.5-2.9-10.9-1.4-5.5-2.6-11c-0.8 3.3-3.7 7.7-6.5 5.7q-0.3-0.2-0.5-0.5-0.2-0.2-0.4-0.4-0.2-0.3-0.3-0.5-0.2-0.3-0.3-0.6c-5.3-8.9-15-14.2-24.9-17.4-9.8-3.2-20.2-4.7-29.9-8.3q-2-0.7-4-1.5-2-0.9-4-1.9-1.9-0.9-3.8-2-1.9-1.1-3.7-2.3-0.9 1.4-1.5 2.9-0.5 1.6-0.6 3.3-0.1 1.6 0.2 3.2 0.4 1.6 1.1 3.1c2.2 3.8 7.1 6 11.3 4.7 2.1-0.7 4-2.2 6.1-2.9 2.1-0.8 5-0.4 6 1.7 0.9 1.9-0.5 4.3 0.2 6.4 1 3.1 5.7 3.4 7.4 6.2 1.2 2.2 0.2 5-1.5 6.7-1.8 1.7-4.2 2.7-6.3 3.9-7 3.8-11.9 10.5-18 15.6-6.1 5.2-14.7 8.9-22 5.6 1.7-8.7-8.7-15.2-10.6-23.9-0.7-2.9-0.3-5.9-1.3-8.7-1.3-4.1-4.9-6.9-7.8-10q-2.7-2.8-4.8-6.1-2-3.3-3.4-6.9-1.4-3.7-2-7.5-0.6-3.9-0.5-7.8c0.2-3.6 0.8-7.2 0-10.8-0.8-3.5-3.7-6.9-7.3-6.7-8.3 0.3-18.6 1-23-6.1-1.5-2.5-2.2-6.1 0-8.1 1.6-1.3 3.9-1.2 6-1l18.6 1.8c4.3 0.5 9 0.8 12.7-1.5 3.8-2.2 5.4-8.3 1.9-10.9-2.5-2-7-1.9-7.7-5-0.6-2.6 2.2-5.5 0.7-7.6-1.1-1.6-3.6-1.2-5.1 0-1.5 1.2-2.6 2.9-4.3 3.7-3 1.6-6.5 0.1-9.7-0.9-3.2-1-7.5-1.1-9 1.9-1.8 3.3 1.5 7.6-0.2 11-2.3 4.3-10 1.8-13.2 5.6-3.6 4.3 2.5 10.8 1.3 16.3q-1.2 0.6-2.5 0.9-1.3 0.2-2.6 0.2-1.3-0.1-2.5-0.5-1.3-0.4-2.4-1.1-1.1-0.8-1.9-1.8-0.9-1-1.5-2.2-0.5-1.2-0.7-2.5-0.2-1.3-0.1-2.6c0.3-2.5 1.6-5 0.7-7.4-0.7-1.9-2.6-3-4.4-4l-18-9.9c-1.7 3.1 0.4 6.9 3.1 9.3 2.6 2.3 6 4 7.7 7.1 0.5 1.1 0.9 2.2 1 3.4 0.1 1.2 0 2.4-0.3 3.5-0.3 1.2-0.9 2.2-1.6 3.2-0.7 0.9-1.6 1.7-2.6 2.3q-0.2 0.1-0.5 0.2-0.2 0.1-0.4 0.2-0.2 0-0.5 0-0.2 0-0.4-0.1-0.2-0.1-0.4-0.3-0.2-0.1-0.4-0.3-0.1-0.2-0.2-0.5-0.1-0.2-0.2-0.4c-3.2-8.2-8-16.2-15.6-20.5-7.6-4.2-18.6-3.4-23.6 3.8-1.2 1.7-2 3.7-3.1 5.5-5.5 9.5-17.3 14.1-28.3 13.8q-0.4 0-0.8-0.1-0.4 0-0.8-0.1-0.4-0.1-0.8-0.2-0.4-0.2-0.7-0.4c-1.8-1.2-1.7-3.8-1.4-6l1.1-9.1c0.3-1.8 0.6-3.8 2-5 2.1-1.6 5-0.6 7.6-0.6q1.5-0.1 2.9-0.6 1.4-0.5 2.6-1.4 1.1-0.9 2-2.1 0.8-1.2 1.3-2.7 0.4-1.4 0.4-2.9 0-1.4-0.4-2.9-0.4-1.4-1.2-2.7-0.8-1.2-1.8-2.2c-1.2-1.2-2.8-2.6-2.2-4.1q0.2-0.3 0.4-0.6 0.3-0.2 0.6-0.4 0.3-0.2 0.6-0.4 0.4-0.1 0.7-0.2c4.7-1.3 9.7-1.7 14.2-3.3 4.6-1.6 9.1-4.9 10.2-9.6 0.3-1.5 0.5-3.2 1.8-3.9q0.2-0.1 0.5-0.2 0.2-0.1 0.5-0.2 0.3 0 0.5 0 0.3-0.1 0.6-0.1c1.2-0.1 2.4-0.5 3.5-1.2 1.1-0.6 2-1.4 2.8-2.3 0.8-1 1.4-2.1 1.8-3.3 0.4-1.2 0.6-2.4 0.5-3.7 2.2-1.5 5.3-0.4 7.4 1.3 2.2 1.6 4 3.8 6.6 4.5 4.9 1.3 9.5-3 14.5-3 2.2 0 4.3 0.7 6.3 0 2-0.7 3.2-2.7 4.8-4.2 1.5-1.5 4.2-2.4 5.6-0.8l-1.2-9q1.9 0.5 3.7 0.6 1.9 0 3.8-0.3 1.9-0.3 3.6-1.1 1.7-0.7 3.3-1.8l-15.7-5.3q-0.2 0-0.4-0.1-0.2-0.1-0.4-0.2-0.1-0.1-0.3-0.2-0.2-0.1-0.3-0.2c-1.2-1.3 0-3.2 0.9-4.6 2.2-3.3 2.6-8.8-1.1-10.5-2.5-1.1-5.3 0.3-7.7 1.6l-11.4 6.4c-0.4 2.1 2.3 3.4 3.9 4.8 1 0.9 1.7 2.1 2 3.4 0.3 1.3 0.3 2.6-0.2 3.9-0.5 1.2-1.3 2.3-2.4 3.1-1.1 0.8-2.4 1.2-3.7 1.2q0.6 0.7 0.9 1.6 0.4 0.8 0.6 1.7 0.2 0.9 0.2 1.8 0 1-0.2 1.9l-7.7 0.5q-0.4 0.1-0.7 0.1-0.3 0-0.6-0.1-0.4 0-0.7-0.2-0.3-0.1-0.5-0.3c-0.9-0.7-0.7-2-0.9-3.1-0.5-2.6-3.1-4.4-5.7-4.9-2.6-0.5-5.3 0.2-7.9 0.7q-0.4 0.2-0.8 0.3-0.4 0-0.9 0-0.4 0-0.8-0.1-0.4-0.1-0.8-0.2-0.3-0.2-0.5-0.4-0.2-0.2-0.4-0.4-0.1-0.2-0.3-0.4-0.1-0.3-0.2-0.5c-1.1-2.8-0.1-6 1.8-8.4 1.8-2.3 4.3-4 6.5-6q2-1.8 3.8-3.8 1.7-2 3.1-4.2 1.5-2.3 2.6-4.7 1.1-2.4 1.9-4.9c4.2-1.8 8.6-4.2 12.9-6q2.4-1.2 5-2.1 2.6-0.9 5.2-1.4 2.7-0.5 5.5-0.7 2.7-0.1 5.4 0.1l14.4 0.3c4.2 0.1 8.6 0.2 12.5 1.8 3.9 1.6 7.4 5.1 7.6 9.3q0.1 0.4 0.1 0.8-0.1 0.3-0.2 0.7-0.1 0.3-0.3 0.6-0.2 0.3-0.5 0.6-0.2 0.1-0.4 0.2-0.2 0-0.4 0.1-0.3 0.1-0.5 0.1-0.2 0-0.5 0c-3.9 0.1-5.6 1.1-9.6 1.2z"/><path class="b" d="m511.3 296.7q0.5-0.4 0.8-0.9 0.3-0.5 0.4-1 0.2-0.6 0.2-1.2-0.1-0.6-0.2-1.1-1-0.4-2.1-0.5-1.1-0.1-2.2 0.1-1.1 0.2-2.1 0.7-0.9 0.5-1.7 1.2-0.4 0.3-0.7 0.7-0.3 0.3-0.5 0.7-0.3 0.4-0.6 0.7-0.2 0.4-0.4 0.8c-1.9 3.1-3.6 6.8-2.5 10.2q0.1 0.3 0.2 0.5 0.1 0.3 0.3 0.5 0.2 0.3 0.4 0.5 0.2 0.2 0.4 0.3 0.2 0.1 0.4 0.1 0.2 0.1 0.4 0.1 0.2 0 0.4 0.1 0.2 0 0.4-0.1 0.8 0 1.5 0 0.8 0 1.6-0.1 0.8 0 1.5-0.1 0.8 0 1.6-0.1c1.3-0.2 2.7-0.5 3.2-1.7 0.7-1.6-0.9-3.3-0.4-4.9q0.1-0.3 0.2-0.6 0.2-0.2 0.3-0.5 0.2-0.2 0.4-0.4 0.2-0.2 0.4-0.4 0.2-0.2 0.4-0.5 0.1-0.2 0.2-0.5 0.1-0.3 0.2-0.6 0-0.3 0-0.5c-0.2-0.8-1.4-1.2-1.8-0.6"/><path class="b" d="m522.1 282.7q-0.7-0.1-1.4-0.2-0.7-0.1-1.4-0.2-0.7 0-1.4 0-0.7 0-1.4 0.1-0.2 0-0.3 0-0.2 0-0.3 0.1-0.2 0-0.3 0-0.2 0.1-0.3 0.2-0.2 0.1-0.3 0.2-0.1 0.1-0.2 0.2-0.1 0.2-0.1 0.3-0.1 0.2-0.2 0.3-0.3 1-0.2 2 0.1 1 0.5 1.9 0.4 0.9 1.2 1.6 0.7 0.7 1.6 1.1 0.3 0 0.5 0.1 0.3 0.1 0.5 0.2 0.3 0.1 0.5 0.2 0.2 0.1 0.5 0.2c1.5 1.3 0.5 3.8 0.8 5.8 0.4 2.2 2.5 4.1 2.1 6.3-0.3 1.8-2.1 3.2-1.8 4.9 0.3 1.9 2.6 2.4 4.5 2.6q0.4 0 0.8 0.1 0.4 0 0.8-0.1 0.4 0 0.8-0.1 0.4-0.1 0.8-0.3 0.3-0.3 0.7-0.6 0.3-0.3 0.5-0.7 0.3-0.3 0.5-0.8 0.2-0.4 0.3-0.8 0.3-0.9 0.5-1.7 0.2-0.9 0.3-1.8 0.1-0.9 0.1-1.8 0.1-0.9 0-1.8 0-0.4 0-0.8-0.1-0.4-0.2-0.8-0.1-0.4-0.2-0.7-0.2-0.4-0.4-0.8-0.2-0.3-0.4-0.5-0.2-0.3-0.5-0.6-0.2-0.2-0.4-0.5-0.3-0.3-0.5-0.5c-3.6-4.2 0.2-10.3-6.6-12.3z"/><path class="c" d="m991.2 607.8c0 0-273.2-156.8-390.8-127.1 0 0-249.3 26.8-278.2 85.8 0 0-79.2-247.6-108.1-255.9"/><path class="c" d="m322.2 566.5c45.8-122.1 458.5-257.5 458.5-257.5-58.6 14.9-180.3 171.7-180.3 171.7 0 0-257.6-187.4-386.3-170.1 0 0 567 18.6 777.1 297.2"/><path class="d" d="m214.1 322.6c-6.6 0-12-5.3-12-12 0-6.6 5.4-11.9 12-11.9 6.6 0 11.9 5.3 11.9 11.9 0 6.7-5.3 12-11.9 12z"/><path class="d" d="m322.2 578.5c-6.6 0-12-5.4-12-12 0-6.6 5.4-12 12-12 6.6 0 12 5.4 12 12 0 6.6-5.4 12-12 12z"/><path class="d" d="m780.7 321c-6.6 0-12-5.4-12-12 0-6.6 5.4-12 12-12 6.6 0 12 5.4 12 12 0 6.6-5.4 12-12 12z"/><path class="d" d="m991.2 619.8c-6.6 0-12-5.4-12-12 0-6.6 5.4-12 12-12 6.6 0 11.9 5.4 11.9 12 0 6.6-5.3 12-11.9 12z"/><path class="d" d="m600.4 492.6c-6.7 0-12-5.3-12-11.9 0-6.6 5.3-12 12-12 6.6 0 11.9 5.4 11.9 12 0 6.6-5.3 11.9-11.9 11.9z"/></svg>